  <svg
    width="20"
    height="20"
    viewBox="0 0 20 20"
    fill="none"
    xmlns="http://www.w3.org/2000/svg"
  >
    <path
      d="M13.3334 18.3333H3.33335C2.89133 18.3333 2.4674 18.1577 2.15484 17.8451C1.84228 17.5326 1.66669 17.1087 1.66669 16.6666V6.66663H3.33335V16.6666H13.3334V18.3333ZM16.6667 15H6.66669C6.22466 15 5.80074 14.8244 5.48818 14.5118C5.17561 14.1992 5.00002 13.7753 5.00002 13.3333V3.33329C5.00002 2.89127 5.17561 2.46734 5.48818 2.15478C5.80074 1.84222 6.22466 1.66663 6.66669 1.66663H16.6667C17.1087 1.66663 17.5326 1.84222 17.8452 2.15478C18.1578 2.46734 18.3334 2.89127 18.3334 3.33329V13.3333C18.3334 13.7753 18.1578 14.1992 17.8452 14.5118C17.5326 14.8244 17.1087 15 16.6667 15ZM6.66669 3.33329V13.3333H16.6667V3.33329H6.66669ZM12.5 11.6666H10.8334V9.16663H8.33335V7.49996H10.8334V4.99996H12.5V7.49996H15V9.16663H12.5V11.6666Z"
      fill="#A4A4A4"
    />
  </svg>