<svg width="214" height="42" viewBox="0 0 214 42" fill="none" xmlns="http://www.w3.org/2000/svg">
<path d="M115 31.8806C117.774 31.8806 120.326 30.9473 122.387 29.3999H107.614C109.675 30.9473 112.252 31.8806 115 31.8806Z" fill="#008560"/>
<path d="M105.307 27.9999H124.571C125.111 27.3368 125.578 26.5999 125.946 25.814H103.908C104.3 26.5999 104.767 27.3368 105.307 27.9999Z" fill="#008560"/>
<path d="M102.607 21.9087C102.656 22.6701 102.803 23.4315 103 24.1438H126.756C126.952 23.4315 127.075 22.6701 127.148 21.9087H102.607Z" fill="#008560"/>
<path d="M127.198 20.7298H122.51C122.289 19.0596 121.528 17.5613 120.4 16.4315C119.025 15.0315 117.136 14.1719 115.001 14.1473C112.89 14.1227 110.976 14.9578 109.577 16.3087C108.423 17.4385 107.638 18.9122 107.368 20.5824H102.681C102.975 17.5613 104.301 14.9333 106.313 12.9929C108.571 10.807 111.663 9.45608 115.074 9.5052C118.485 9.55432 121.553 10.9543 123.737 13.1894C125.701 15.1789 126.977 17.8315 127.198 20.7298Z" fill="#008560"/>
<path d="M136.867 30.3825C136.867 30.6772 137.112 30.9474 137.431 30.9474H140.204C140.499 30.9474 140.769 30.7018 140.769 30.3825V23.0141H143.984L147.837 30.6772C147.886 30.8001 148.033 30.9474 148.303 30.9474H151.346C151.837 30.9474 152.058 30.4808 151.837 30.1123L147.837 22.6948C150.364 21.6632 152.156 19.4772 152.156 16.8C152.156 13.3369 149.285 10.5123 145.8 10.5123H137.456C137.137 10.5123 136.891 10.7825 136.891 11.0772V30.3825H136.867ZM140.744 19.8457V14.0246H145.505C147.002 14.0246 148.278 15.1544 148.401 16.6527C148.524 18.372 147.125 19.8457 145.505 19.8457H140.744Z" fill="#008560"/>
<path d="M162.488 30.3824C162.488 30.6771 162.733 30.9473 163.052 30.9473H174.979C175.298 30.9473 175.544 30.6771 175.544 30.3824V27.9754C175.544 27.6807 175.323 27.4105 174.979 27.4105H166.365V22.3017H173.556C173.85 22.3017 174.12 22.0807 174.12 21.7368V19.3298C174.12 19.035 173.875 18.7649 173.556 18.7649H166.365V14.0245H174.979C175.298 14.0245 175.544 13.7543 175.544 13.4842V11.0526C175.544 10.7578 175.298 10.4877 174.979 10.4877H163.052C162.733 10.4877 162.488 10.7578 162.488 11.0526V30.3824Z" fill="#008560"/>
<path d="M185.778 30.3825C185.778 30.6772 186.023 30.9474 186.342 30.9474H188.919C189.213 30.9474 189.483 30.7018 189.483 30.3825V23.0141H192.698L196.551 30.6772C196.6 30.8001 196.748 30.9474 197.018 30.9474H200.232C200.723 30.9474 200.944 30.4808 200.723 30.1123L196.723 22.6948C199.251 21.6632 201.042 19.4772 201.042 16.8C201.042 13.3369 198.171 10.5123 194.686 10.5123H186.342C186.023 10.5123 185.778 10.7825 185.778 11.0772V30.3825ZM189.483 19.8457V14.0246H194.244C195.741 14.0246 197.018 15.1544 197.14 16.6527C197.263 18.372 195.864 19.8457 194.244 19.8457H189.483Z" fill="#008560"/>
<path d="M83.514 30.3824C83.514 30.6771 83.7595 30.9473 84.0785 30.9473H94.754C95.073 30.9473 95.2939 30.6771 95.2939 30.3824V27.9754C95.2939 27.6807 95.073 27.4105 94.754 27.4105H87.3916V11.0526C87.3916 10.7578 87.1461 10.4877 86.8271 10.4877H84.0785C83.7595 10.4877 83.514 10.7578 83.514 11.0526V30.3824Z" fill="#008560"/>
<path d="M60.4452 30.3824C60.4452 30.6771 60.6906 30.9473 61.0096 30.9473H63.7583C64.0528 30.9473 64.3227 30.7017 64.3227 30.3824V23.5298H67.9794C71.5378 23.5298 74.4828 20.5824 74.4828 16.9473C74.4828 13.4105 71.5378 10.4877 67.9303 10.4877H61.0096C60.6906 10.4877 60.4452 10.7578 60.4452 11.0526V30.3824ZM64.3227 20.0175V14.1964H67.6849C69.3046 14.1964 70.6544 15.4 70.6544 16.9964C70.6544 18.6912 69.3046 19.9929 67.6849 19.9929H64.3227V20.0175Z" fill="#008560"/>
<path d="M34.4314 30.1123C34.186 30.4808 34.4314 30.9229 34.9467 30.9229H38.1371C38.358 30.9229 38.5298 30.7755 38.6279 30.6527L42.7018 24.0702H42.8L46.9229 30.6772C46.972 30.8001 47.1928 30.9474 47.4137 30.9474H50.6041C51.0949 30.9474 51.3403 30.5299 51.0949 30.1369L45.0332 20.4597L50.8986 11.3229C51.144 10.9544 50.8986 10.5123 50.4078 10.5123H47.0701C46.8247 10.5123 46.6529 10.6597 46.6039 10.7825L42.7754 17.0457H42.7509L38.9715 10.7825C38.8734 10.6597 38.7261 10.5123 38.5052 10.5123H35.1676C34.6768 10.5123 34.4314 10.9544 34.6768 11.3229L40.4931 20.4597L34.4314 30.1123Z" fill="#008560"/>
<path d="M13.7432 30.3824C13.7432 30.6771 13.9886 30.9473 14.3076 30.9473H26.0629C26.3819 30.9473 26.6273 30.6771 26.6273 30.3824V27.9754C26.6273 27.6807 26.4065 27.4105 26.0629 27.4105H17.4489V22.3017H24.6395C24.934 22.3017 25.2039 22.0807 25.2039 21.7368V19.3298C25.2039 19.035 24.9585 18.7649 24.6395 18.7649H17.4489V14.0245H26.2101C26.5292 14.0245 26.7746 13.7543 26.7746 13.4842V11.0526C26.7746 10.7578 26.5292 10.4877 26.2101 10.4877H14.3076C13.9886 10.4877 13.7432 10.7578 13.7432 11.0526V30.3824Z" fill="#008560"/>
</svg>
